<mxfile host="app.diagrams.net" modified="2023-12-22T08:46:51.935Z" agent="Mozilla/5.0 (Windows NT 10.0; Win64; x64) AppleWebKit/537.36 (KHTML, like Gecko) Chrome/120.0.0.0 Safari/537.36" version="22.1.11" etag="YMdBSD62hZ8cf_nXsptv" type="github">
  <diagram name="Page-1" id="0RrHbZ7AIQUPfl_Y5ajv">
    <mxGraphModel>
      <root>
        <mxCell id="0" />
        <mxCell id="1" parent="0" />
      </root>
    </mxGraphModel>
  </diagram>
</mxfile>
